<svg xmlns="http://www.w3.org/2000/svg" viewBox="0 0 30 36"><defs><style>.cls-1{fill:#fff;}</style></defs><g id="Layer_2" data-name="Layer 2"><g id="Layer_1-2" data-name="Layer 1"><path class="cls-1" d="M28.53,9.22H26.46v0a4.35,4.35,0,0,0-4.27-4.41H19.44V3a3,3,0,0,0-3-3H13.16a3,3,0,0,0-2.95,3V4.77H7.78A4.35,4.35,0,0,0,3.51,9.18v0h-2a1.49,1.49,0,0,0,0,3h1.9l.89,17.87A5.93,5.93,0,0,0,10.17,36h9.66a5.9,5.9,0,0,0,5.9-5.86l.9-18h1.9a1.49,1.49,0,0,0,0-3ZM12.74,3a.46.46,0,0,1,.42-.49h3.33A.45.45,0,0,1,16.9,3V4.77H12.74Zm10,27a3,3,0,0,1-3,3H10.17a3,3,0,0,1-2.95-3l-.89-17.8H23.67ZM23.92,9.22H6.05v0A1.8,1.8,0,0,1,7.78,7.32H22.19a1.81,1.81,0,0,1,1.73,1.86Z"/></g></g></svg>