<svg xmlns="http://www.w3.org/2000/svg" viewBox="0 0 148.83 137.83">
  <defs>
    <style>
      .cls-1,.cls-2{fill:none;stroke:#fff;stroke-linecap:round;stroke-linejoin:round;}.cls-1{stroke-width:2.75px;}.cls-2{stroke-width:2.83px;}
    </style>
  </defs>
  <g id="Layer_2" data-name="Layer 2">
    <g id="Layer_1-2" data-name="Layer 1">
      <polygon class="cls-1"
               points="34.43 135.53 44.14 127.57 74.26 58.5 59.7 52.23 29.58 121.3 30.38 133.78 34.43 135.53" />
      <path class="cls-1"
            d="M77,41.25l-6.43-2.78a4.45,4.45,0,0,0-5.83,2.29l-2.8,6.42,14.57,6.27L79.26,47A4.38,4.38,0,0,0,77,41.25Z" />
      <polyline class="cls-2" points="70.69 67.77 77.36 67.47 84.87 63.09" />
      <ellipse class="cls-2" cx="96.47" cy="18.77" rx="17.46" ry="17.35" />
      <line class="cls-2" x1="100.48" y1="41.86" x2="100.78" y2="36.37" />
      <path class="cls-2"
            d="M101.9,92.78l5.34-1a9,9,0,0,0,7.32-10.42l-5.79-32.32a7.05,7.05,0,0,0-8.19-5.68L88.89,45.48a7,7,0,0,0-5.72,8.14L88.52,83.5A11.53,11.53,0,0,0,101.9,92.78Z" />
      <polyline class="cls-2" points="95.82 53.74 83.04 72.38 58.63 76.36" />
      <polyline class="cls-2" points="102.34 87.13 87.46 110.48 93.46 124.84" />
      <path class="cls-2"
            d="M74,124.91H93.49a0,0,0,0,1,0,0v2.37a7.1,7.1,0,0,1-7.1,7.1H74a0,0,0,0,1,0,0v-9.47A0,0,0,0,1,74,124.91Z"
            transform="translate(168.44 258.69) rotate(179.6)" />
      <polyline class="cls-2" points="105.03 92.23 106.1 107.55 117.19 124.84" />
      <path class="cls-2"
            d="M97.78,124.91h19.45a0,0,0,0,1,0,0v2.37a7.1,7.1,0,0,1-7.1,7.1H97.78a0,0,0,0,1,0,0v-9.47A0,0,0,0,1,97.78,124.91Z"
            transform="translate(215.9 258.53) rotate(179.6)" />
      <line class="cls-2" x1="147.42" y1="136.42" x2="1.42" y2="136.42" />
    </g>
  </g>
</svg>
